<svg xmlns="http://www.w3.org/2000/svg" xmlns:xlink="http://www.w3.org/1999/xlink" height="117" width="129" viewBox="0 0 129 117">
    <defs/>
    <g transform="translate(1,1)">
        <path fill="#7fd13b" d="M103,104L103,96.8L120.1,96.8L120.1,114L103,114L103,106.9L16.9,106.9L16.9,104L103,104zM118,49.5L120.9,49.5L120.9,12L89.4,12L89.4,9.1L120.9,9.1L118,9.6L118,49.5zM2,36.2L19.2,36.2L19.2,19L2,19L2,36.2zM2.2,113.3L19.4,113.3L19.4,96.2L2.2,96.2L2.2,113.3zM74,19.2L91.2,19.2L91.2,2L74,2L74,19.2zM9.3,95.7L12.2,95.7L12.2,36.5L9.3,36.5L9.3,95.7zM112.9,62L126,62L126,48.9L112.9,48.9L112.9,62zM63.4,29.3L76.5,29.3L76.5,16.2L63.4,16.2L63.4,29.3zM4.6,110.9L16.9,110.9L16.9,98.6L4.6,98.6L4.6,110.9zM4.5,33.7L16.7,33.7L16.7,21.5L4.5,21.5L4.5,33.7zM76.5,16.7L88.7,16.7L88.7,4.5L76.5,4.5L76.5,16.7zM114.8,60.1L124.1,60.1L124.1,50.8L114.8,50.8L114.8,60.1zM65.3,27.4L74.6,27.4L74.6,18.1L65.3,18.1L65.3,27.4zM82.6,13.4C84.1,13.4,85.4,12.1,85.4,10.6C85.4,9,84.1,7.8,82.6,7.8C81,7.8,79.8,9,79.8,10.6C79.8,12.1,81,13.4,82.6,13.4zM10.6,30.4C12.1,30.4,13.4,29.1,13.4,27.6C13.4,26,12.1,24.8,10.6,24.8C9,24.8,7.8,26,7.8,27.6C7.8,29.1,9,30.4,10.6,30.4zM10.8,107.6C12.3,107.6,13.6,106.3,13.6,104.8C13.6,103.2,12.3,101.9,10.8,101.9C9.2,101.9,8,103.2,8,104.8C8,106.3,9.2,107.6,10.8,107.6zM69.9,24.9C71.1,24.9,72.1,24,72.1,22.8C72.1,21.6,71.1,20.6,69.9,20.6C68.8,20.6,67.8,21.6,67.8,22.8C67.8,24,68.8,24.9,69.9,24.9zM119.5,57.6C120.6,57.6,121.6,56.6,121.6,55.5C121.6,54.3,120.6,53.3,119.5,53.3C118.3,53.3,117.3,54.3,117.3,55.5C117.3,56.6,118.3,57.6,119.5,57.6zM108.7,64.6C98.2,52.7,83.6,38.9,64.3,38.9C56.5,38.9,49.4,41.1,41.8,45.8C35.4,49.7,28.9,55.2,19.9,64.4L21.3,66.2C34.1,79.1,45.1,90.3,64.3,90.3C72.8,90.3,81,87.6,89.4,82C96.6,77.2,102.7,71.1,107.6,66.2L108.7,64.6zM24.7,64.6C30.3,70.2,36,76,42.4,80.2C49.4,84.7,56.4,86.6,64.3,86.6C81.8,86.6,95.1,73.6,104,64.8C97.9,58,92.4,53.2,86.9,49.6C79.4,44.8,72,42.6,64.3,42.6C49.9,42.6,38.5,50.9,24.7,64.6zM64.3,83.2C74.6,83.2,82.9,74.9,82.9,64.6C82.9,54.3,74.6,46,64.3,46C54.1,46,45.7,54.3,45.7,64.6C45.7,74.9,54.1,83.2,64.3,83.2zM64.3,78.3C71.9,78.3,78,72.2,78,64.6C78,57,71.9,50.9,64.3,50.9C56.7,50.9,50.6,57,50.6,64.6C50.6,72.2,56.7,78.3,64.3,78.3zM71.7,64.6C71.7,68.6,68.4,71.9,64.3,71.9C60.3,71.9,56.9,68.4,56.9,64.4C56.9,60.4,60.5,57.2,64.3,57.2L64.3,53.6C58.1,53.6,53.2,58.5,53.2,64.6C53.2,70.7,58.2,75.7,64.3,75.7C70.4,75.7,75.5,70.7,75.5,64.6L71.7,64.6z" fill-opacity="0.2"/>
        <path id="shape1" fill="#14a3f0" stroke="#14a3f0" d="M116,7.6L118.9,7.6L118.9,47.5L116,47.5L116,7.6zM87.4,10L87.4,7.1L118.9,7.1L118.9,10L87.4,10zM77.8,8.6C77.8,7,79,5.8,80.6,5.8C82.1,5.8,83.4,7,83.4,8.6C83.4,10.1,82.1,11.4,80.6,11.4C79,11.4,77.8,10.1,77.8,8.6zM72,0L89.2,0L89.2,17.2L72,17.2L72,0zM74.5,14.7L86.7,14.7L86.7,2.5L74.5,2.5L74.5,14.7zM65.8,20.8C65.8,19.6,66.8,18.6,67.9,18.6C69.1,18.6,70.1,19.6,70.1,20.8C70.1,22,69.1,22.9,67.9,22.9C66.8,22.9,65.8,22,65.8,20.8zM61.4,14.2L74.5,14.2L74.5,27.3L61.4,27.3L61.4,14.2zM63.3,25.4L72.6,25.4L72.6,16.1L63.3,16.1L63.3,25.4zM115.3,53.5C115.3,52.3,116.3,51.3,117.5,51.3C118.6,51.3,119.6,52.3,119.6,53.5C119.6,54.6,118.6,55.6,117.5,55.6C116.3,55.6,115.3,54.6,115.3,53.5zM110.9,46.9L124,46.9L124,60L110.9,60L110.9,46.9zM112.8,58.1L122.1,58.1L122.1,48.8L112.8,48.8L112.8,58.1zM6,102.8C6,101.2,7.2,99.9,8.8,99.9C10.3,99.9,11.6,101.2,11.6,102.8C11.6,104.3,10.3,105.6,8.8,105.6C7.2,105.6,6,104.3,6,102.8zM.2,94.2L17.4,94.2L17.4,111.3L.2,111.3L.2,94.2zM2.6,108.9L14.9,108.9L14.9,96.6L2.6,96.6L2.6,108.9zM14.9,104.9L14.9,102L101,102L101,104.9L14.9,104.9zM109.5,106.2C108,106.2,106.7,105,106.7,103.4C106.7,101.9,108,100.6,109.5,100.6C111.1,100.6,112.4,101.9,112.4,103.4C112.4,105,111.1,106.2,109.5,106.2zM101,112L101,94.8L118.1,94.8L118.1,112L101,112zM115.7,109.5L115.7,97.3L103.4,97.3L103.4,109.5L115.7,109.5zM7.3,34.5L10.2,34.5L10.2,93.7L7.3,93.7L7.3,34.5zM5.8,25.6C5.8,24,7,22.8,8.6,22.8C10.1,22.8,11.4,24,11.4,25.6C11.4,27.1,10.1,28.4,8.6,28.4C7,28.4,5.8,27.1,5.8,25.6zM0,17L17.2,17L17.2,34.2L0,34.2L0,17zM2.5,31.7L14.7,31.7L14.7,19.5L2.5,19.5L2.5,31.7z"/>
        <path id="shape2" fill="#14a3f0" stroke="#14a3f0" d="M88.8,25.7C78.2,13.8,63.7,0,44.4,0C36.6,0,29.4,2.2,21.9,6.8C15.5,10.8,9,16.3,0,25.5L1.3,27.3C14.1,40.2,25.2,51.4,44.4,51.4C52.8,51.4,61.1,48.7,69.5,43C76.7,38.2,82.8,32.2,87.7,27.3L88.8,25.7zM44.4,3.7C52.1,3.7,59.4,5.8,66.9,10.7C72.5,14.3,78,19.1,84.1,25.9C75.2,34.7,61.8,47.7,44.4,47.7C36.4,47.7,29.5,45.8,22.5,41.2C16.1,37.1,10.3,31.3,4.8,25.7C18.5,12,30,3.7,44.4,3.7zM51.8,25.7C51.8,29.7,48.4,33,44.4,33C40.4,33,36.9,29.5,36.9,25.5C36.9,21.5,40.6,18.3,44.4,18.3L44.4,14.6C38.2,14.6,33.2,19.6,33.2,25.7C33.2,31.8,38.2,36.7,44.4,36.7C50.5,36.7,55.5,31.8,55.5,25.7L51.8,25.7zM25.8,25.7C25.8,15.4,34.1,7.1,44.4,7.1C54.6,7.1,62.9,15.4,62.9,25.7C62.9,36,54.6,44.3,44.4,44.3C34.1,44.3,25.8,36,25.8,25.7zM44.4,39.4C51.9,39.4,58.1,33.3,58.1,25.7C58.1,18.1,51.9,12,44.4,12C36.8,12,30.7,18.1,30.7,25.7C30.7,33.3,36.8,39.4,44.4,39.4z" transform="translate(17.95,36.91)"/>
    </g>
</svg>
